<svg width="500" height="500" version="1.1" xmlns="http://www.w3.org/2000/svg" desc="Created with imagetracer.js version 1.2.6" ><path fill="rgb(157,197,145)" stroke="rgb(157,197,145)" stroke-width="1" opacity="0.9725490196078431" d="M 250.5 108 Q 255.3 140.3 267 165.5 Q 278.3 188.7 296.5 205 L 313.5 218 L 338.5 231 L 360.5 239 L 394 247.5 Q 362.7 254.2 335.5 265 L 303 284 Q 304.1 286.7 301.5 286 L 282 306.5 L 267 333.5 L 261 348.5 L 255 369.5 L 251 386.5 L 251 393 Q 247.5 394.1 249 386.5 L 239 348.5 L 232 331.5 L 216 304.5 L 204.5 292 Q 186.6 275.9 163.5 265 Q 136.8 253.8 105 247.5 L 143.5 238 L 170.5 227 L 195.5 212 L 215 193.5 Q 228.4 177.4 237 156.5 L 245 131.5 L 249 114.5 L 249 109.5 L 250.5 108 Z " /><path fill="rgb(0,0,0)" stroke="rgb(0,0,0)" stroke-width="1" opacity="0" d="M 0 0 L 500 0 L 500 500 L 0 500 L 0 0 Z M 251 108 L 249 110 L 249 115 L 245 132 L 237 157 Q 228 177 215 194 L 196 212 L 171 227 L 144 238 L 105 248 Q 137 254 164 265 Q 187 276 205 292 L 216 305 L 232 332 L 239 349 L 249 387 Q 247 394 251 393 L 251 387 L 255 370 L 261 349 L 267 334 L 282 307 L 302 286 Q 304 287 303 284 L 336 265 Q 363 254 394 248 L 361 239 L 339 231 L 314 218 L 297 205 Q 278 189 267 166 Q 255 140 251 108 Z " /></svg>